<svg xmlns="http://www.w3.org/2000/svg" viewBox="0 0 512 512" fill="#101010" xmlns:v="https://vecta.io/nano">
<style>
    :root { --color: #000; }
    @media (prefers-color-scheme: light) { :root { --color: #000; } }
    @media (prefers-color-scheme: dark) { :root { --color: #fff; } }
    path { fill: var(--color);}
  </style>
<path d="M424.64 87.35C379.59 42.3 319.7 17.5 256 17.5S132.4 42.31 87.36 87.36c-22.26 22.26-39.66 48.29-51.7 77.38-12.05 29.08-18.15 59.79-18.15 91.28 0 63.7 24.81 123.59 69.86 168.64C132.41 469.7 192.3 494.51 256 494.51h.65a235.8 235.8 0 0 0 90.68-18.04c29.1-12.06 55.12-29.49 77.33-51.82 45.05-45.05 69.85-104.94 69.85-168.64s-24.81-123.6-69.86-168.64zM256 475.19c-120.87 0-219.21-98.33-219.21-219.19S135.13 36.8 256 36.8 475.19 135.13 475.19 256 376.86 475.19 256 475.19zm111.73-148.23c-45.59-3.28-83.36-30.08-99.26-70.8l-.16-.36a136.53 136.53 0 0 0-125.65-82.85h-9.76V346.4h9.74c47.82 0 91.74-24.77 116.53-65.18 10.01 17.24 23.95 31.97 40.68 42.91 22.39 14.69 49.2 22.46 77.53 22.46h9.65V176.27h-19.3v150.68zm-215.5-134.33c42.07 3.4 78.67 28.7 96.7 67.04-18.03 38.34-54.63 63.63-96.7 67.04V192.63z"/>
</svg>